# xmcd CD database file
#
# Track frame offsets:
#	151
#	18874
#	45708
#	64952
#	85907
#	118744
#	150214
#	190421
#	232634
#
# Disc length: 3457 seconds
#
# Revision: 0
# Processed by: cddbd v1.5.2PL0 Copyright (c) Steve Scherf et al.
# Submitted via: CDex 1.70beta2
#
DISCID=640d7f09
DTITLE=Various Artist - 品茶背景音樂VOL2
DYEAR=1900
DGENRE=New Age
TTITLE0=世外佳人
TTITLE1=鴛鴦梅 
TTITLE2=臘梅
TTITLE3=硃砂梅 
TTITLE4=建蘭
TTITLE5=春蘭
TTITLE6=報歲蘭 
TTITLE7=幽蘭逢春
TTITLE8=王者香
EXTD=
EXTT0=
EXTT1=
EXTT2=
EXTT3=
EXTT4=
EXTT5=
EXTT6=
EXTT7=
EXTT8=
PLAYORDER=
